# xmcd
#
# Track frame offsets: 
#        150
#        34110
#        57425
#        145356
#        181532
#        208157
#        228707
#
# Disc length: 3457 seconds
#
# Revision: 3
# Processed by: cddbd v1.5.2PL0 Copyright (c) Steve Scherf et al.
# Submitted via: ExactAudioCopy v0.99pb5
#
DISCID=630d7f07
DTITLE=Monroe Institute - Deep Journeys
DYEAR=2004
DGENRE=Meditative
TTITLE0=Deep Journey Track1
TTITLE1=Deep Journey Track2
TTITLE2=Deep Journey Track3
TTITLE3=Deep Journey Track4
TTITLE4=Deep Journey Track5
TTITLE5=Deep Journey Track6
TTITLE6=Deep Journey Track7
EXTD=YEAR: 2002
EXTT0=
EXTT1=
EXTT2=
EXTT3=
EXTT4=
EXTT5=
EXTT6=
PLAYORDER=
